<svg viewBox="0 0 397 51" xmlns="http://www.w3.org/2000/svg">
  <title>
    usda-logo
  </title>
  <desc>
    United States Department of Agriculture
  </desc>
  <g fill="none" fill-rule="evenodd">
    <g fill="#1C4E9D">
      <path d="M16.6555 2.043l-.0903 12.6625c0 5.2625-3.1297 7.305-7.33473 7.305-3.625 0-8.238282-1.6082-8.238282-7.0898V2.043C.992188 1.3301.494922.8973 0 .6492h5.94375c-.49297.2481-.95898.6809-.95898 1.3938v12.9711c0 2.1675.74375 5.2332 4.76523 5.2332 3.6855 0 5.0191-2.4153 5.0191-5.4813L14.709 2.043c0-.7129-.3715-1.1457-.8375-1.3938h3.5926c-.4668.2481-.8086.6809-.8086 1.3938M25.0414 22.0105c-2.8125 0-4.8578-.9597-5.9391-1.4843l-.1574-5.2321c.5895 2.1961 2.4438 5.1082 5.666 5.1082 3.0661 0 3.995-2.1984 3.995-3.716 0-2.9734-2.6977-3.3758-5.5102-4.8922-2.8492-1.5793-4.0875-3.2492-4.0875-5.6027 0-4.2102 3.9309-5.882 6.75-5.882 1.052 0 3.0926.2148 4.6727 1.1449l.1535 4.5816c-.4305-1.6406-2.1961-4.1179-5.1707-4.1179-2.3516 0-3.2789 1.641-3.2789 2.9726 0 1.8879 1.332 2.602 4.2402 3.9324 2.8824 1.3625 5.8832 2.384 5.8832 6.6887 0 3.8692-3.4074 6.4988-7.2168 6.4988M41.8867 2.1973c-.7461 0-2.3851 0-2.8508.0625v17.832h2.4762c6.9996 0 8.9504-4.707 8.9504-9.2266 0-3.7129-2.1687-8.6679-8.5758-8.6679zm.3684 19.5043h-7.9539c.4629-.2789.8066-.7125.8066-1.3938V2.043c0-.7129-.3437-1.1457-.8066-1.3938h8.2371c10.1828 0 12.225 7.2149 12.225 10.216 0 5.3879-4.1473 10.8364-12.5082 10.8364zM61.9086 6.6875s-2.1066 5.2633-3.0957 7.584h6.2539c-1.4539-3.4379-3.1582-7.584-3.1582-7.584zm4.8906 15.0141c.8028-.4336.9613-.8668.7446-1.5157-.095-.3101-.8985-2.2004-1.7641-4.3039h-7.5859c-.9293 2.1035-1.6719 3.9313-1.736 4.2723-.2766.743-.1226 1.1754.7145 1.5473h-4.2707c.866-.5875 1.1429-.9282 1.4504-1.5157C54.9418 19.009 63.0855 0 63.0855 0s8.2372 19.009 8.793 20.1859c.309.6489.5235.9899 1.5485 1.5157h-6.6278z"/>
    </g>
    <g fill="#004E3A">
      <path d="M72.4973 24.6754S27.4426 23.557.759375 37.7762c0 0 28.280125-11.184 71.737925-10.0653v-3.0355M.759375 24.6754S15.9379 24.8348 25.3629 28.35c0 0-19.33126-1.598-24.603525-.798v-2.8766M.759375 29.6297s10.865225-.4805 17.414025.1594c0 0-15.81402 1.9156-17.414025 2.7132v-2.8726"/>
      <path d="M65.0309 30.1176c-.073-.0047-.170354.0039-.2329.0054-13.1015.2512-40.5761 1.8309-64.026125 10.1161v9.9839H72.5051V30.1176s-2.784-.086-7.4742 0"/>
    </g>
  </g>
</svg>
